<?xml version="1.0" encoding="UTF-8"?>
<!DOCTYPE svg PUBLIC "-//W3C//DTD SVG 1.1//EN" "http://www.w3.org/Graphics/SVG/1.1/DTD/svg11.dtd">
<!-- Creator: CorelDRAW X8 -->
<svg xmlns="http://www.w3.org/2000/svg" xml:space="preserve" width="1024px" height="1024px" version="1.1" style="shape-rendering:geometricPrecision; text-rendering:geometricPrecision; image-rendering:optimizeQuality; fill-rule:evenodd; clip-rule:evenodd"
viewBox="0 0 1024 1024"
 xmlns:xlink="http://www.w3.org/1999/xlink">
 <defs>
  <style type="text/css">
   <![CDATA[
    .fil2 {fill:black}
    .fil6 {fill:#F61981}
    .fil3 {fill:#F61981}
    .fil4 {fill:white}
    .fil1 {fill:black;fill-rule:nonzero}
    .fil0 {fill:#F61981;fill-rule:nonzero}
    .fil5 {fill:#F61981;fill-rule:nonzero}
   ]]>
  </style>
 </defs>
 <g id="Layer_x0020_1">
  <metadata id="CorelCorpID_0Corel-Layer"/>
  <g>
   <path class="fil0" d="M181 748l28 -204 70 0c20,0 36,2 48,6 11,4 20,9 25,17 6,8 9,18 9,31 0,13 -1,28 -3,45l24 0 32 -230 -24 0c-3,22 -8,39 -14,52 -6,13 -14,23 -22,30 -9,6 -19,10 -31,12 -12,2 -25,3 -39,3l-70 0c6,-43 12,-85 19,-128 7,-42 14,-85 21,-129l106 0c56,0 95,10 116,30 20,21 28,53 21,99l25 0 19 -166 -417 0 -3 26 8 0c7,0 12,1 17,3 4,2 7,5 10,11 2,5 3,13 2,23 0,10 -1,23 -3,39l-60 430c-2,17 -5,31 -8,41 -3,11 -6,19 -10,25 -4,6 -9,10 -16,12 -6,2 -13,3 -22,3l-4 27 189 0 4 -27c-13,0 -23,-1 -30,-4 -8,-4 -13,-8 -16,-15 -3,-7 -5,-15 -5,-26 1,-10 2,-22 4,-36zm413 -267c-1,2 -1,3 -1,5l-36 262c-5,33 -11,55 -20,65 -8,11 -20,16 -36,16l-4 27 161 0 4 -27c-18,0 -29,-5 -34,-16 -4,-10 -4,-32 0,-65l49 -349 -75 17 -8 65zm379 -203c4,-13 5,-25 3,-35 -2,-9 -5,-17 -10,-24 -5,-6 -11,-11 -19,-13 -7,-3 -15,-5 -22,-5 -8,0 -16,2 -24,5 -8,2 -15,7 -22,13 -7,6 -13,14 -17,23 -5,10 -7,22 -8,36l-8 400 24 0 103 -400z"/>
  </g>
  <path class="fil1" d="M239 859l29 0 17 -88 -29 0 -17 88zm18 -95l29 0 5 -22 -29 0 -5 22z"/>
  <polygon id="1" class="fil1" points="291,859 325,859 362,771 333,771 314,832 314,832 319,771 289,771 "/>
  <path id="2" class="fil1" d="M382 820l39 0 1 -1c5,-28 9,-50 -24,-50 -32,0 -40,21 -45,46 -4,25 -5,46 27,46 10,0 18,-2 25,-7 7,-6 12,-14 14,-26l-27 0c-1,9 -3,15 -9,15 -6,0 -5,-7 -4,-11l3 -12zm15 -16l-12 0 1 -6c2,-8 4,-11 8,-11 5,0 6,3 4,11l-1 6z"/>
  <path id="3" class="fil1" d="M441 782l-5 42 22 0 11 -42 8 -39 -28 0 -8 39zm-15 77l28 0 5 -27 -27 0 -6 27z"/>
  <path class="fil2" d="M182 810c-3,-7 -5,-15 -5,-26 1,-10 2,-22 4,-36l8 -59c-49,-4 -38,-16 -61,167l96 0 4 -27c-13,0 -23,-1 -30,-4 -8,-4 -13,-8 -16,-15z"/>
 </g>
 <g id="Layer_x0020_3">
  <metadata id="CorelCorpID_1Corel-Layer"/>
  <path class="fil3" d="M851 740c-31,0 -56,25 -56,56 0,31 25,56 56,56 30,0 56,-25 56,-56 0,-31 -26,-56 -56,-56z"/>
  <path class="fil4" d="M795 796c0,-31 25,-56 56,-56 30,0 56,25 56,56 0,31 -26,56 -56,56 -31,0 -56,-25 -56,-56zm56 -60c-34,0 -60,27 -60,60 0,33 26,60 60,60 33,0 60,-27 60,-60 0,-33 -27,-60 -60,-60z"/>
  <path class="fil5" d="M656 278c11,-15 21,-22 37,-19 18,3 30,20 27,38 -5,33 -44,61 -82,88 -28,-39 -55,-77 -49,-110 3,-18 20,-31 38,-27 17,2 23,12 29,30z"/>
  <path class="fil5" d="M695 202c7,-5 13,-7 20,-3 8,4 11,14 6,22 -8,14 -30,21 -52,27 -6,-22 -13,-44 -5,-59 5,-7 15,-10 22,-6 8,4 9,10 9,19z"/>
 </g>
 <g id="Layer_x0020_5">
  <metadata id="CorelCorpID_2Corel-Layer"/>
  <path class="fil6" d="M572 634c-55,-13 -88,-39 -75,-60 9,-15 38,-24 75,-26l0 -3c-41,1 -73,11 -83,28 -15,23 22,50 83,65l0 -4z"/>
  <path class="fil6" d="M669 559c51,14 81,38 68,58 -10,17 -48,27 -94,26 -17,0 -34,-2 -52,-5 -7,-1 -13,-2 -19,-4 -55,-13 -88,-39 -75,-60 9,-15 38,-24 75,-26l0 -3c-41,1 -73,11 -83,28 -15,23 22,50 83,65 5,1 11,2 17,3 18,3 36,5 53,6 50,1 92,-10 104,-28 14,-22 -20,-49 -76,-63l-1 3z"/>
  <path class="fil4" d="M643 643c-17,0 -34,-2 -52,-5 -7,-1 -13,-2 -19,-4l0 4c5,1 11,2 17,3 18,3 36,5 53,6l1 -4z"/>
 </g>
</svg>
